<svg id="_0371_bartender" xmlns="http://www.w3.org/2000/svg" xmlns:xlink="http://www.w3.org/1999/xlink" viewBox="0 0 500 500" data-imageid="bartender-22" imageName="Bartender" class="illustrations_image" style="width: 186px;"><defs><style>.cls-1_bartender-22{fill:url(#linear-gradient);}.cls-1_bartender-22,.cls-2_bartender-22,.cls-3_bartender-22,.cls-4_bartender-22,.cls-5_bartender-22,.cls-6_bartender-22,.cls-7_bartender-22,.cls-8_bartender-22,.cls-9_bartender-22,.cls-10_bartender-22,.cls-11_bartender-22,.cls-12_bartender-22,.cls-13_bartender-22,.cls-14_bartender-22,.cls-15_bartender-22,.cls-16_bartender-22,.cls-17_bartender-22,.cls-18_bartender-22,.cls-19_bartender-22,.cls-20_bartender-22,.cls-21_bartender-22,.cls-22_bartender-22,.cls-23_bartender-22,.cls-24_bartender-22,.cls-25_bartender-22,.cls-26_bartender-22{stroke-width:0px;}.cls-2_bartender-22{isolation:isolate;opacity:.18;}.cls-2_bartender-22,.cls-26_bartender-22{fill:#68e1fd;}.cls-3_bartender-22{fill:url(#linear-gradient-11-bartender-22);}.cls-4_bartender-22{fill:url(#linear-gradient-12-bartender-22);}.cls-5_bartender-22{fill:url(#linear-gradient-13-bartender-22);}.cls-6_bartender-22{fill:url(#linear-gradient-10-bartender-22);}.cls-7_bartender-22{fill:url(#linear-gradient-16-bartender-22);}.cls-8_bartender-22{fill:url(#linear-gradient-19-bartender-22);}.cls-9_bartender-22{fill:url(#linear-gradient-15-bartender-22);}.cls-10_bartender-22{fill:url(#linear-gradient-21-bartender-22);}.cls-11_bartender-22{fill:url(#linear-gradient-18-bartender-22);}.cls-12_bartender-22{fill:url(#linear-gradient-14-bartender-22);}.cls-13_bartender-22{fill:url(#linear-gradient-20-bartender-22);}.cls-14_bartender-22{fill:url(#linear-gradient-17-bartender-22);opacity:.47;}.cls-15_bartender-22{fill:url(#linear-gradient-3-bartender-22);}.cls-15_bartender-22,.cls-16_bartender-22{opacity:.48;}.cls-16_bartender-22{fill:url(#linear-gradient-4-bartender-22);}.cls-17_bartender-22{fill:url(#linear-gradient-2-bartender-22);opacity:.49;}.cls-18_bartender-22{fill:url(#linear-gradient-8-bartender-22);}.cls-19_bartender-22{fill:url(#linear-gradient-9-bartender-22);}.cls-20_bartender-22{fill:url(#linear-gradient-7-bartender-22);}.cls-21_bartender-22{fill:url(#linear-gradient-5-bartender-22);}.cls-22_bartender-22{fill:url(#linear-gradient-6-bartender-22);}.cls-23_bartender-22{fill:#231f20;}.cls-24_bartender-22{fill:#fff;}.cls-25_bartender-22{fill:#ffb4a3;}</style><linearGradient id="linear-gradient-bartender-22" x1="774.63" y1="3503.51" x2="782.85" y2="3451.33" gradientTransform="translate(-124.55 3808.35) rotate(-8.24) scale(1 -1)" gradientUnits="userSpaceOnUse"><stop offset="0" stop-color="#000" data-darkreader-inline-stopcolor="" style="--darkreader-inline-stopcolor: var(--darkreader-background-000000, #000000);"/><stop offset="1" stop-color="#000" stop-opacity="0" data-darkreader-inline-stopcolor="" style="--darkreader-inline-stopcolor: var(--darkreader-background-000000, #000000);"/></linearGradient><linearGradient id="linear-gradient-2-bartender-22" x1="669.03" y1="3070.78" x2="720.63" y2="3061.98" gradientTransform="translate(-472.84 3359.19) scale(1 -1)" xlink:href="#linear-gradient-bartender-22"/><linearGradient id="linear-gradient-3-bartender-22" x1="750.74" y1="3152.32" x2="745.47" y2="3069.66" gradientTransform="translate(-472.84 3359.19) scale(1 -1)" xlink:href="#linear-gradient-bartender-22"/><linearGradient id="linear-gradient-4-bartender-22" x1="741.98" y1="2854.98" x2="740.21" y2="3044.95" gradientTransform="translate(-472.84 3359.19) scale(1 -1)" xlink:href="#linear-gradient-bartender-22"/><linearGradient id="linear-gradient-5-bartender-22" x1="742.05" y1="3158.88" x2="751.85" y2="3113.34" gradientTransform="translate(-472.84 3359.19) scale(1 -1)" xlink:href="#linear-gradient-bartender-22"/><linearGradient id="linear-gradient-6-bartender-22" x1="734.48" y1="3083.52" x2="735.27" y2="3101.49" gradientTransform="translate(-472.84 3359.19) scale(1 -1)" xlink:href="#linear-gradient-bartender-22"/><linearGradient id="linear-gradient-7-bartender-22" x1="733.68" y1="3085.72" x2="734.37" y2="3101.68" gradientTransform="translate(-472.84 3359.19) scale(1 -1)" xlink:href="#linear-gradient-bartender-22"/><linearGradient id="linear-gradient-8-bartender-22" x1="318.41" y1="410" x2="304.54" y2="194.1" gradientTransform="matrix(1,0,0,1,0,0)" xlink:href="#linear-gradient-bartender-22"/><linearGradient id="linear-gradient-9-bartender-22" x1="230.2" y1="410.8" x2="216" y2="189.83" gradientTransform="matrix(1,0,0,1,0,0)" xlink:href="#linear-gradient-bartender-22"/><linearGradient id="linear-gradient-10-bartender-22" x1="711.03" y1="3007.09" x2="711.17" y2="3015.74" gradientTransform="translate(-472.84 3359.19) scale(1 -1)" gradientUnits="userSpaceOnUse"><stop offset=".02" stop-color="#fff" stop-opacity="0" data-darkreader-inline-stopcolor="" style="--darkreader-inline-stopcolor: var(--darkreader-background-ffffff, #181a1b);"/><stop offset=".58" stop-color="#fff" stop-opacity=".39" data-darkreader-inline-stopcolor="" style="--darkreader-inline-stopcolor: var(--darkreader-background-ffffff, #181a1b);"/><stop offset=".68" stop-color="#fff" stop-opacity=".68" data-darkreader-inline-stopcolor="" style="--darkreader-inline-stopcolor: var(--darkreader-background-ffffff, #181a1b);"/><stop offset="1" stop-color="#fff" data-darkreader-inline-stopcolor="" style="--darkreader-inline-stopcolor: var(--darkreader-background-ffffff, #181a1b);"/></linearGradient><linearGradient id="linear-gradient-11-bartender-22" x1="619.36" y1="3087.96" x2="627.96" y2="3132.52" xlink:href="#linear-gradient-10-bartender-22"/><linearGradient id="linear-gradient-12-bartender-22" x1="680.61" y1="3056.5" x2="716.37" y2="3056.5" xlink:href="#linear-gradient-10-bartender-22"/><linearGradient id="linear-gradient-13-bartender-22" x1="679.4" y1="2966.48" x2="742.63" y2="2966.48" xlink:href="#linear-gradient-10-bartender-22"/><linearGradient id="linear-gradient-14-bartender-22" x1="744.02" y1="2997.97" x2="829.85" y2="3034.29" gradientTransform="translate(-472.84 3359.19) scale(1 -1)" xlink:href="#linear-gradient-bartender-22"/><linearGradient id="linear-gradient-15-bartender-22" x1="742.6" y1="3011.05" x2="742.82" y2="3011.05" xlink:href="#linear-gradient-10-bartender-22"/><linearGradient id="linear-gradient-16-bartender-22" x1="731.32" y1="2989.56" x2="710.51" y2="3001.57" gradientTransform="translate(-471 3367.76) scale(1 -1)" xlink:href="#linear-gradient-10-bartender-22"/><linearGradient id="linear-gradient-17-bartender-22" x1="722.49" y1="3094.97" x2="648.61" y2="3053.93" gradientTransform="translate(-472.84 3359.19) scale(1 -1)" xlink:href="#linear-gradient-bartender-22"/><linearGradient id="linear-gradient-18-bartender-22" x1="668.61" y1="3109.49" x2="687.81" y2="3114.63" xlink:href="#linear-gradient-10-bartender-22"/><linearGradient id="linear-gradient-19-bartender-22" x1="843.29" y1="2971.83" x2="755.34" y2="2968.31" xlink:href="#linear-gradient-10-bartender-22"/><linearGradient id="linear-gradient-20-bartender-22" x1="804.36" y1="3041.15" x2="804.05" y2="3051.12" gradientTransform="translate(-471 3367.76) scale(1 -1)" xlink:href="#linear-gradient-bartender-22"/><linearGradient id="linear-gradient-21-bartender-22" x1="838.87" y1="2965.41" x2="765.64" y2="2962.5" gradientTransform="translate(-471 3367.76) scale(1 -1)" xlink:href="#linear-gradient-10-bartender-22"/></defs><g id="background_bartender-22"><path class="cls-2_bartender-22 targetColor" d="M524.23,348.18c-5.44,26.75-17.44,52.54-35.38,72.9-7.16,8.19-15.34,15.43-24.32,21.56-39.73,26.94-91,28.79-138.94,26.27-69.48-3.69-138.4-14.51-205.67-32.31-17.3-4.55-28.58-8.24-38.25-15.53-7.7-5.81-14.38-13.91-22.25-26.58-15.46-24.89-26.02-53.01-28.92-82.28-4.41-44.53,10.08-91.6,42.33-122.63,28.71-27.62,68.05-40.57,102.75-60.16,33.92-19.18,64.47-45.35,101.59-57.3,51.28-16.51,109.57-2.51,152.62,29.91,43.05,32.42,71.79,81.26,86.95,132.96,10.76,36.63,15.13,75.73,7.51,113.17Z" style="fill: rgb(104, 225, 253); --darkreader-inline-fill: var(--darkreader-text-68e1fd, #63e0fd);" data-darkreader-inline-fill=""/><path class="cls-23_bartender-22" d="M488.85,421.08c-7.16,8.19-15.34,15.44-24.32,21.57-39.74,26.94-91,28.79-138.95,26.27-69.48-3.68-138.4-14.51-205.66-32.31-17.3-4.55-28.58-8.23-38.26-15.53h407.19Z"/></g><g id="character_bartender-22"><path class="cls-25_bartender-22" d="M164.61,302.95s-26.89-3.96-48.77-7.89c-21.88-3.92-44.14-17.27-37.23-31.5s78.74,2.99,89.13-3.1c10.39-6.09-3.14,42.48-3.14,42.48Z"/><path class="cls-1_bartender-22" d="M176.48,276.86l-63.14-7.84,15.75-11.36c12.33,4.87,25.86,5.83,38.76,2.77,21.36-5.15,21.66,5.08,21.66,5.08l-13.03,11.35Z"/><path class="cls-24_bartender-22" d="M345.3,336.29c.09,9.42-.34,18.85-1.31,28.22l-3.28,38.9c-.49,5.85-1.18,12.08-3,17.67h-134.62c-.13-21.26,3.19-42.58.99-63.73-1.11-10.72-3.63-21.34-3.24-32.11.35-9.48,2.95-18.73,4.84-28.04,2.63-13.2,3.77-26.66,3.39-40.11-.19-1.46.07-2.95.74-4.26,1.04-1.58,3.08-2.05,4.93-2.43,2.98-.56,5.96-1.09,8.95-1.6,4.66-.8,9.32-1.54,13.99-2.23,17.35-2.57,34.8-4.4,52.31-5.48,7.71-.47,11.73,3.8,18.52,6.18,2.36.83,4.72,1.66,7.08,2.49,3.27,1.15,6.54,2.29,9.82,3.44,3.3,1.14,6.6,2.29,9.9,3.43,3.63,1.21,7.42,2.66,9.69,5.75,1.88,2.61,2.28,5.96,2.42,9.17.51,13.46-2.97,26.76-3.22,40.23-.16,8.18.87,16.33,1.1,24.51Z"/><path class="cls-17_bartender-22" d="M229.84,332.22c-.42,4.14-1.03,8.62-3.96,11.58l-.87-44.68c-.29-14.91-.57-29.91,1.55-44.69.09-1.58.61-3.11,1.51-4.41,2.58-3.1,18.64-7.27,17.69-.57-.4,2.81-13.74,61.46-15.92,82.76Z"/><path class="cls-15_bartender-22" d="M302.55,248.63c-.19,4.54-2.07,8.83-4.05,12.94-1.84,3.8-3.77,7.57-5.81,11.28-1.48,2.9-3.29,5.62-5.4,8.1-.49.62-1.13,1.12-1.85,1.44-1.95.75-4.01-.78-5.39-2.35s-2.83-3.44-4.92-3.63c-.87,0-1.75.06-2.62.17-2.11,0-4.01-1.21-5.77-2.42-.41-.28-.53-1.21-.07-.98-3.13-2.01-6.67-4.11-10.31-3.37-1.48.42-2.92.95-4.32,1.59-1,.34-2.03.57-3.08.68-.27.05-.54,0-.78-.13-.2-.21-.31-.48-.33-.76-.67-4.34-.84-8.74-.52-13.12,0-.76.16-1.52.45-2.23.96-1.6,2.77-2.49,4.63-2.27,1.8.25,3.56.75,5.23,1.48,6.94,2.42,14.54,1.96,21.8,1.51,1.61-.01,3.21-.27,4.74-.78,2.56-.97,4.41-3.15,6.31-5.1,2.29-2.49,4.91-4.66,7.78-6.44,3.46-1.87,4.41,1.3,4.28,4.4Z"/><path class="cls-16_bartender-22" d="M229.64,392.01c-.11,3.02-.12,6.34,1.83,8.65,1.4,1.43,3.15,2.46,5.08,3,15.65,5.62,32.7,6.02,48.6,1.13,4.12-1.28,8.27-3.02,11.14-6.23.78-.76,1.28-1.76,1.43-2.83-.07-1.15-.43-2.26-1.05-3.23-3.15-6.21-3.63-13.41-3.83-20.38-.61-18.57-.07-37.26,3.38-55.52,3.45-18.26,9.9-36.11,20.4-51.43,3.34,41.56.98,83.35-1.38,124.99,2.01-.55,3.73,1.9,3.51,3.97s-1.61,3.79-2.6,5.62c-3.09,5.68-2.42,12.56-2.17,19.02.21,4.17-.12,9.09-3.63,11.33-1.99,1.21-4.49,1.28-6.84,1.27l-85.8-.61c-2.34-47.38,8.13-94.49,8.48-141.95.07-10.42-.23-21.32,3.31-31.28,1.32-3.73,4.95-7.27,6.66-1.3,1.41,4.98-.63,12.97-.93,18.17-1.46,24.99-2.75,49.99-3.86,75-.62,14.19-1.19,28.39-1.71,42.6Z"/><path class="cls-25_bartender-22" d="M304.62,185.01c1.34-.73,3.04-1.21,4.36-.45.89.63,1.48,1.6,1.65,2.68.84,3.86-1.21,7.78-3.55,10.9-1.38,1.79-3.16,3.63-5.41,3.74-.47.05-.94-.02-1.37-.22-1.21-.62-1.42-2.31-1.32-3.63.31-2.7.79-5.38,1.42-8.02.58-2.22,2.13-4.06,4.23-5Z"/><path class="cls-25_bartender-22" d="M296.63,236.93c.87,4.52-9.16,18.17-13.33,20.08-5.26,2.42-12.04.99-17.69-.19-4.04-.97-7.53-3.52-9.69-7.07-1.3-1.88-2.27-3.96-2.87-6.17-.23-.86-.3-1.76-.22-2.65.23-1.19.63-2.35,1.21-3.42,2.12-4.42,3.49-9.16,4.08-14.03.46-3.86.51-8.03,2.77-11.19,1.22-1.56,2.71-2.88,4.4-3.91,4.86-3.36,9.99-6.32,15.34-8.84,4.3-2.04,10.83-4.71,15.46-1.99,1.59.93,1.96,2.42,2.06,4.23.08,1.33-.93,4.31-1.8,8.9-.11.58-.22,1.21-.31,1.82-1.27,8.11-1.07,16.39.59,24.43Z"/><path class="cls-21_bartender-22" d="M296.84,210.54c-.23.66-.48,1.32-.73,1.96-8.25,20.94-30.89,38.13-39.98,37.29-.06,0-.11,0-.17,0-1.3-1.88-2.27-3.96-2.87-6.17-.23-.86-.3-1.76-.22-2.65.23-1.19.63-2.35,1.21-3.42,2.12-4.42,3.49-9.16,4.08-14.03l38.23-12.84.44-.15Z"/><path class="cls-25_bartender-22" d="M237.8,188.59c-.39,1.57-.16,3.24.63,4.65.47.85,1.13,1.57,1.56,2.42,1.07,2.1.75,4.85,2.35,6.59.28.34.67.57,1.1.65.78.03,1.49-.47,1.72-1.21.21-.73.25-1.49.13-2.24-.29-3.2-.53-6.41-.87-9.59-.22-2.06-1.87-3.67-3.94-3.84-1.4.1-2.52,1.18-2.69,2.57Z"/><path class="cls-24_bartender-22" d="M242.49,247.11c-1.47,5.57-.21,11.47,1.43,16.96,4.97-1.39,9.54-3.95,13.33-7.46,1.15-1.04,2.78-1.35,4.24-.82,1.33.3,2.29.29,2.98,1.47,4.01,6.74,9.33,12.6,15.65,17.24.47.47,1.09.76,1.76.8.61-.16,1.14-.52,1.5-1.03,7.8-8.72,14.21-18.58,18.99-29.25.39-.7.58-1.5.56-2.3-.21-.88-.68-1.68-1.33-2.3l-5.79-6.58c-.02,6.7-3.3,12.97-8.79,16.81-4.13,2.81-9.12,4.01-14.03,4.95-3.26.64-6.7,1.21-9.86.16-6.14-2-9-9.04-10.16-15.4-.1-1.14.13-2.29.64-3.32-5.37-.38-9.87,5.34-11.11,10.08Z"/><path class="cls-26_bartender-22 targetColor" d="M249.92,249.11c-.29-.3-.68-.49-1.09-.53-.4.03-.77.23-1.02.55-.72.87-1.2,1.92-1.41,3.03-1.1,4.24-1.53,8.63-1.27,13-.02.79.2,1.58.62,2.25.65.74,1.63,1.1,2.6.94.96-.17,1.87-.5,2.71-.99,2.5-1.29,4.94-2.68,7.33-4.15.56,1.88,2.55,2.96,4.43,2.39.69-.21,1.31-.62,1.76-1.18l6.18,7.98c.53.87,1.33,1.53,2.29,1.87,1.12.15,2.23-.35,2.86-1.28.6-.93,1.01-1.97,1.21-3.06,1.12-4.66,1.97-9.38,2.56-14.14.09-.45.05-.92-.11-1.34-.44-.82-1.6-.82-2.51-.68-2.14.35-4.24.92-6.26,1.7-1.07.41-2.12.87-3.15,1.39-.69.35-2.23,1.62-2.94,1.56s-1.77-1.15-2.64-1.33c-.7-.07-1.4-.1-2.11-.07-1.89-.16-3.38-1.49-4.72-2.71-1.82-1.7-3.42-3.6-5.32-5.17Z" style="fill: rgb(104, 225, 253); --darkreader-inline-fill: var(--darkreader-text-68e1fd, #63e0fd);" data-darkreader-inline-fill=""/><path class="cls-22_bartender-22" d="M249.92,249.11c-.29-.3-.68-.49-1.09-.53-.4.03-.77.23-1.02.55-.72.87-1.2,1.92-1.41,3.03-1.1,4.24-1.53,8.63-1.27,13-.02.79.2,1.58.62,2.25.65.74,1.63,1.1,2.6.94.96-.17,1.87-.5,2.71-.99,2.5-1.29,4.94-2.68,7.33-4.15.56,1.88,2.55,2.96,4.43,2.39.69-.21,1.31-.62,1.76-1.18l6.18,7.98c.53.87,1.33,1.53,2.29,1.87,1.12.15,2.23-.35,2.86-1.28.6-.93,1.01-1.97,1.21-3.06,1.12-4.66,1.97-9.38,2.56-14.14.09-.45.05-.92-.11-1.34-.44-.82-1.6-.82-2.51-.68-2.14.35-4.24.92-6.26,1.7-1.07.41-2.12.87-3.15,1.39-.69.35-2.23,1.62-2.94,1.56s-1.77-1.15-2.64-1.33c-.7-.07-1.4-.1-2.11-.07-1.89-.16-3.38-1.49-4.72-2.71-1.82-1.7-3.42-3.6-5.32-5.17Z"/><path class="cls-20_bartender-22" d="M250.38,249.85c-.26-.26-.6-.43-.97-.47-.36.03-.68.21-.91.48-.62.78-1.04,1.71-1.21,2.69-.98,3.77-1.36,7.66-1.13,11.54-.02.71.17,1.4.55,2,.57.66,1.45.98,2.31.84.86-.14,1.68-.44,2.42-.88,2.22-1.14,4.39-2.42,6.51-3.63.51,1.67,2.27,2.62,3.94,2.11.61-.19,1.16-.55,1.56-1.06l5.49,7.09c.46.77,1.18,1.36,2.04,1.66,1,.14,1.98-.31,2.54-1.14.53-.83.9-1.76,1.07-2.73,1-4.14,1.76-8.33,2.28-12.55.09-.4.05-.83-.1-1.21-.39-.73-1.42-.74-2.23-.61-1.9.31-3.76.82-5.56,1.51-.95.35-1.89.76-2.8,1.21-.62.31-1.97,1.44-2.62,1.38s-1.56-1.02-2.35-1.21c-.62-.07-1.24-.09-1.87-.07-1.63-.32-3.1-1.17-4.19-2.42-1.7-1.42-3.11-3.1-4.77-4.53Z"/><path class="cls-26_bartender-22 targetColor" d="M324.87,255.67c-1.02,1.82-1.85,3.74-2.5,5.72-2.21,6.64-6.09,108.97-7.65,159.69h-12.68l.28-5.2c.5-8.8,7.83-149.14,9.29-157.94.41-3.1,1.81-5.98,3.98-8.18.34-.35.7-.68,1.08-.99,1.4-1.1,2.73.17,4.43.75l.38.16c2.11.78,3.67,1.95,3.93,3.52.13.73-.02,1.56-.54,2.47Z" style="fill: rgb(104, 225, 253); --darkreader-inline-fill: var(--darkreader-text-68e1fd, #63e0fd);" data-darkreader-inline-fill=""/><path class="cls-26_bartender-22 targetColor" d="M237.68,246.57c-.01.15-.04.31-.09.48-.44,1.63-3.47,7.06-4.25,9.48-2.29,6.85-6.34,115.83-7.8,164.55h-12.76l.02-1.26.49-8.8c.48-8.8,7.82-149.13,9.29-157.93.36-2.21.69-3.45,1.11-4.29.51-1.01,1.16-1.43,2.21-2.25,1.41-1.06,12.33-4.51,11.78.02Z" style="fill: rgb(104, 225, 253); --darkreader-inline-fill: var(--darkreader-text-68e1fd, #63e0fd);" data-darkreader-inline-fill=""/><path class="cls-18_bartender-22" d="M324.87,255.67c-1.02,1.82-1.85,3.74-2.5,5.72-2.21,6.64-6.09,108.97-7.65,159.69h-12.68l.28-5.2c.5-8.8,7.83-149.14,9.29-157.94.41-3.1,1.81-5.98,3.98-8.18.34-.35.7-.68,1.08-.99,1.4-1.1,2.73.17,4.43.75l.38.16c2.11.78,3.67,1.95,3.93,3.52.13.73-.02,1.56-.54,2.47Z"/><path class="cls-19_bartender-22" d="M237.68,246.57c-.01.15-.04.31-.09.48-.44,1.63-3.47,7.06-4.25,9.48-2.29,6.85-6.34,115.83-7.8,164.55h-12.76l.02-1.26.49-8.8c.48-8.8,7.82-149.13,9.29-157.93.36-2.21.69-3.45,1.11-4.29.51-1.01,1.16-1.43,2.21-2.25,1.41-1.06,12.33-4.51,11.78.02Z"/><path class="cls-26_bartender-22 targetColor" d="M269.98,347.97l-.22.35c-1.8,1.49-15.23,2.65-31.5,2.65-17.53,0-31.73-1.33-31.73-3s14.2-2.99,31.73-2.99,31.71,1.36,31.71,2.99Z" style="fill: rgb(104, 225, 253); --darkreader-inline-fill: var(--darkreader-text-68e1fd, #63e0fd);" data-darkreader-inline-fill=""/><path class="cls-6_bartender-22" d="M269.98,347.97l-.22.35c-1.8,1.49-15.23,2.65-31.5,2.65-17.53,0-31.73-1.33-31.73-3s14.2-2.99,31.73-2.99,31.71,1.36,31.71,2.99Z"/><path class="cls-24_bartender-22" d="M169.74,253.89c-2.13.74-4.07,1.97-5.66,3.57-1.87,2.19-2.27,5.23-2.54,8.09-.96,9.96-1.47,29.93-1.21,39.98,0,.99,24.23,4.08,43.78,25.44,4.57,4.98,6.06-34.85,8.15-41.28,2.34-7.23,4.03-14.66,5.03-22.19.56-4.4,3.39-17.86-2.58-17.54-3.31.18-8.19,3.55-11.25,4.85l-10.83,4.7c-7.47,3.21-15.37-8.86-22.88-5.61Z"/><path class="cls-25_bartender-22" d="M112.52,274.21l35.81-21.47c4.78-2.87,9.58-5.75,14.06-9.09,3.22-2.42,6.46-5.29,7.27-9.22.36-1.28.14-2.65-.61-3.76-.74-.75-1.68-1.26-2.71-1.48-9.22-2.68-19.03-.35-28.48,1.32-15.28,2.7-31.16,3.76-45.22,10.31-4.34,2.02-8.48,4.63-11.39,8.48-1.58,2.21-2.78,4.67-3.57,7.27-2.07,6.47-1.91,14.54,3.17,18.96,7.85,6.9,23.68,3.45,31.67-1.33Z"/><path class="cls-26_bartender-22 targetColor" d="M108.36,216.56c-2.65,2.51-3.86,6.14-4.75,9.69-.92,3.72-1.57,7.51-1.94,11.33-.21,2.12-.29,4.41.85,6.21.85,1.15,1.93,2.09,3.19,2.77,17.38,10.9,38.29,14.28,58.57,17.42l14.2,2.2c.92.23,1.89.19,2.79-.12.69-.38,1.26-.94,1.64-1.62,1.54-2.3,2.59-4.89,3.09-7.61-1.48,1.66-2.42,3.72-2.7,5.92,3.59-.25,7.15-.79,10.66-1.6,1.59-.25,3.09-.87,4.4-1.8,1.26-1.18,2.18-2.67,2.67-4.32,2.1-5.96,2.2-12.42,2.28-18.73.24-1.38-.52-2.73-1.82-3.25l-11.37-7.18c-.69-.49-1.43-.9-2.22-1.21-1.26-.34-2.57-.46-3.88-.36-15.75.08-30.68-6.69-46.32-8.31-6.19-.64-12.49-.48-18.55-1.93.61.15-1.66.68-1.74.68-.87,0-2.08-.69-3.08-.69-2.23.07-4.35.96-5.95,2.51Z" style="fill: rgb(104, 225, 253); --darkreader-inline-fill: var(--darkreader-text-68e1fd, #63e0fd);" data-darkreader-inline-fill=""/><path class="cls-26_bartender-22 targetColor" d="M209.9,238.35c1.83.32,3.05,2.07,2.73,3.9-.03.19-.08.37-.15.55-.27,4.9-1.78,9.65-4.4,13.8-.17.29-.42.54-.71.71-.39.13-.82.13-1.21,0-2.3-.4-4.56-.96-6.78-1.68-.23-.06-.45-.16-.64-.3-.62-.48-.46-1.44-.27-2.2,1.21-4.59,1.32-9.36,2.42-13.93s5.55-2.04,9.01-.85Z" style="fill: rgb(104, 225, 253); --darkreader-inline-fill: var(--darkreader-text-68e1fd, #63e0fd);" data-darkreader-inline-fill=""/><path class="cls-3_bartender-22" d="M108.36,216.56c-2.65,2.51-3.86,6.14-4.75,9.69-.92,3.72-1.57,7.51-1.94,11.33-.21,2.12-.29,4.41.85,6.21.85,1.15,1.93,2.09,3.19,2.77,17.38,10.9,38.29,14.28,58.57,17.42l14.2,2.2c.92.23,1.89.19,2.79-.12.69-.38,1.26-.94,1.64-1.62,1.54-2.3,2.59-4.89,3.09-7.61-1.48,1.66-2.42,3.72-2.7,5.92,3.59-.25,7.15-.79,10.66-1.6,1.59-.25,3.09-.87,4.4-1.8,1.26-1.18,2.18-2.67,2.67-4.32,2.1-5.96,2.2-12.42,2.28-18.73.24-1.38-.52-2.73-1.82-3.25l-11.37-7.18c-.69-.49-1.43-.9-2.22-1.21-1.26-.34-2.57-.46-3.88-.36-15.75.08-30.68-6.69-46.32-8.31-6.19-.64-12.49-.48-18.55-1.93.61.15-1.66.68-1.74.68-.87,0-2.08-.69-3.08-.69-2.23.07-4.35.96-5.95,2.51Z"/><path class="cls-26_bartender-22 targetColor" d="M209.02,245.68c2.34,1.07,6.53,10.19,7.5,12.56.57,1.37.82,2.86,1.34,4.24.74,1.72,1.68,3.35,2.81,4.85l2.12,3.04c1.66,2.33,2.58,5.1,2.67,7.96,0,2.87-.31,5.79.24,8.6.94,4.64,4.3,8.48,5.71,12.96,1.61,5.18.51,10.82,1.21,16.21,1.09,8.23,6.37,15.53,7,23.8-.05,1.04.2,2.07.71,2.98.45.62,1.21,1.02,1.61,1.64.43.74.68,1.57.7,2.42l.75,7.06c.2,1.04.15,2.11-.13,3.13-.74,1.96-3.17,2.85-5.25,2.5-2.05-.51-3.95-1.49-5.56-2.86-.93-.56-1.69-1.37-2.19-2.34-.26-.84-.33-1.72-.21-2.59.29-4.6.34-9.21.17-13.81,0-3.08-.41-6.14-1.21-9.11-.76-2.42-1.96-4.6-2.86-6.93-1.68-4.33-2.32-8.98-1.88-13.6.28-2.92.99-5.81.84-8.73-.36-6.77-5.25-12.4-7.27-18.86-2.17-6.75-1.54-14.97-6.72-19.82-.96-.75-1.83-1.6-2.62-2.53-.78-.98-.85-2.34-.18-3.39.69-.93,1.15-8.24.69-9.36Z" style="fill: rgb(104, 225, 253); --darkreader-inline-fill: var(--darkreader-text-68e1fd, #63e0fd);" data-darkreader-inline-fill=""/><path class="cls-4_bartender-22" d="M209.02,245.68c2.34,1.07,6.53,10.19,7.5,12.56.57,1.37.82,2.86,1.34,4.24.74,1.72,1.68,3.35,2.81,4.85l2.12,3.04c1.66,2.33,2.58,5.1,2.67,7.96,0,2.87-.31,5.79.24,8.6.94,4.64,4.3,8.48,5.71,12.96,1.61,5.18.51,10.82,1.21,16.21,1.09,8.23,6.37,15.53,7,23.8-.05,1.04.2,2.07.71,2.98.45.62,1.21,1.02,1.61,1.64.43.74.68,1.57.7,2.42l.75,7.06c.2,1.04.15,2.11-.13,3.13-.74,1.96-3.17,2.85-5.25,2.5-2.05-.51-3.95-1.49-5.56-2.86-.93-.56-1.69-1.37-2.19-2.34-.26-.84-.33-1.72-.21-2.59.29-4.6.34-9.21.17-13.81,0-3.08-.41-6.14-1.21-9.11-.76-2.42-1.96-4.6-2.86-6.93-1.68-4.33-2.32-8.98-1.88-13.6.28-2.92.99-5.81.84-8.73-.36-6.77-5.25-12.4-7.27-18.86-2.17-6.75-1.54-14.97-6.72-19.82-.96-.75-1.83-1.6-2.62-2.53-.78-.98-.85-2.34-.18-3.39.69-.93,1.15-8.24.69-9.36Z"/><path class="cls-26_bartender-22 targetColor" d="M258.37,433.4c.19,1.94-6.19,4.25-18.17,4.07s-21.48-2.13-14.31-6.97c0,0,5.21-.21,7.93-3.49s5.61-9.1,4.85-19.54c-.76-10.44,1.94-17.42-15.66-37.73-17.6-20.31-16.44-21.8-16.44-21.8,0,1.67,14.2,3,31.73,3,16.28,0,29.7-1.21,31.5-2.65-1.42,2.42-9.97,16.74-13.52,22.58-3.86,6.4-16.06,17.23-13.93,35.99,2.13,18.76,4.25,21.67,9.29,23.22s6.54,1.39,6.74,3.32Z" style="fill: rgb(104, 225, 253); --darkreader-inline-fill: var(--darkreader-text-68e1fd, #63e0fd);" data-darkreader-inline-fill=""/><path class="cls-5_bartender-22" d="M258.37,433.4c.19,1.94-6.19,4.25-18.17,4.07s-21.48-2.13-14.31-6.97c0,0,5.21-.21,7.93-3.49s5.61-9.1,4.85-19.54c-.76-10.44,1.94-17.42-15.66-37.73-17.6-20.31-16.44-21.8-16.44-21.8,0,1.67,14.2,3,31.73,3,16.28,0,29.7-1.21,31.5-2.65-1.42,2.42-9.97,16.74-13.52,22.58-3.86,6.4-16.06,17.23-13.93,35.99,2.13,18.76,4.25,21.67,9.29,23.22s6.54,1.39,6.74,3.32Z"/><path class="cls-25_bartender-22" d="M387.67,382.48c.42,5.23.78,10.54-.25,15.69-1.03,5.15-3.63,10.18-7.98,13.09-4.35,2.92-10.64,3.22-14.67-.13-3.8-3.16-4.85-8.48-5.55-13.4l-5.18-33.82c-.8-3.96-1.01-8.01-.62-12.03,1.11-6.86,5.62-12.7,11.99-15.48,2.25-.96,8.98-2.42,11.31-1.01,3.29,1.93,4.85,10.55,5.78,14.04,3,10.77,4.26,21.94,5.17,33.05Z"/><path class="cls-24_bartender-22" d="M376.06,312.45c3.39,7.41,6.65,15.15,6.83,23.31.13,1.97-.21,3.95-.99,5.77-.94,1.62-2.17,3.05-3.63,4.22-7.32,6.53-14.9,12.74-22.76,18.62-.64.63-1.52.96-2.42.91-.82-.18-8.79,4.53-9.21,3.8-6.17-10.74-7.51-23.52-8.15-35.89-.53-10.24-.68-20.47-.82-30.72-.11-8.02,7.27-21.57,8.16-29.55.28-2.33.08-7.98,2.76-8.69s5.66,4.72,6.77,6.26c9.36,13.05,16.8,27.38,23.46,41.96Z"/><path class="cls-12_bartender-22" d="M356.98,344.1c-2.3-3.1-4.94-5.94-7.27-9.05-8.84-12.11-11.42-27.57-13.75-42.4l-3.56,24.49c-.24,2.45-.82,4.85-1.73,7.13-1.97,4.36,5.79,35.44,8.48,38.36,2.24,2.42,2.65,6.76,5.81,7.6,2.01.52,3.99-.78,5.66-2.01,2.98-2.2,12.93-7.27,13.66-10.9,1.08-4.66-7.3-9.13-7.3-13.23Z"/><path class="cls-25_bartender-22" d="M306.2,387.94c-6.6,1.21-13.25,2.58-19.95,2.27-5.43-.27-10.73-1.65-16.15-2.23-7.7-.82-15.48,0-23.2.84-4.15.45-9.41,1.94-9.79,6.06-.12,1.31.33,2.63.1,3.91-.42,2.42-3,3.83-5.4,4.31-2.4.48-4.97.39-7.18,1.44s-3.9,3.88-2.59,5.95c.93,1.49,2.9,1.89,4.64,2.14l13.26,1.96c-2.06,2.23-.76,6.06,1.7,7.86s5.62,2.14,8.58,2.81c5.51,1.21,10.83,3.63,16.47,3.63,6.95,0,13.33-3.71,19.05-7.62,3.55-2.42,7.13-5,11.31-5.91,2.12-.41,4.28-.53,6.43-.36,16.67.79,32.57,8.29,49.27,8.33,6.22.1,12.39-1.14,18.09-3.63,6.52-2.94,12.36-8.37,13.81-15.37,3.49-16.85-16.85-17.65-28.19-19.01-16.74-1.95-33.72-.38-50.26,2.62Z"/><path class="cls-25_bartender-22" d="M154.82,261.96c1.69-3.16,5.57-4.43,8.81-2.88,3.1,1.74,4.63,5.36,3.72,8.79-.16.69-.48,1.32-.94,1.85-.5.46-1.08.82-1.71,1.08-1.34.73-2.79,1.23-4.3,1.48-5.48.58-7.46-6.23-5.57-10.32Z"/><path class="cls-25_bartender-22" d="M146.66,219.91c-.77,1.12-.95,2.54-.48,3.82.88,1.67,3.4,1.62,5.02.63,1.61-.99,2.76-2.62,4.36-3.63,3.16-2,3.76-5.33-.59-6.9-3.73-1.34-6.81,3.32-8.3,6.09Z"/><path class="cls-25_bartender-22" d="M157.39,220.61c-.57,1.39-.94,3.13,0,4.26.71.71,1.7,1.08,2.7,1.01,2.06,0,4.03-.83,5.46-2.31.33-.43.74-.79,1.21-1.07.92-.39,2.01.11,2.97-.19,1.04-.5,1.69-1.57,1.66-2.73.24-3.04-2.54-7.68-5.92-7.89-3.79-.24-6.89,6.03-8.08,8.92Z"/><path class="cls-25_bartender-22" d="M172.69,218.22c-2.03,2.02-3.58,4.48-4.52,7.2-.27.56-.3,1.2-.08,1.78.35.52.93.84,1.55.88,2.18.33,4.38-.49,5.81-2.17.64-.78,1.21-1.77,2.22-1.94s1.76.45,2.63.27c.75-.23,1.3-.87,1.42-1.65.1-.77.03-1.55-.21-2.29-1.24-4.97-5.31-5.58-8.82-2.08Z"/><path class="cls-25_bartender-22" d="M186.71,220.93c-1.1,1.27-1.97,2.73-2.57,4.31-.59,1.61-.3,3.42.78,4.76,1.06,1.05,2.57,1.48,4.02,1.14,1.43-.34,2.71-1.15,3.63-2.29,1.05-1.14,1.64-2.62,1.65-4.17-.03-1.57-1.03-2.95-2.52-3.46-1.49-.45-3.9-1.73-4.99-.29Z"/><path class="cls-9_bartender-22" d="M269.98,347.97c-.01.14-.1.27-.22.35l.22-.35Z"/><polygon class="cls-26_bartender-22 targetColor" points="218.21 357.73 230.09 371.79 240.64 387.34 260.87 358.02 218.21 357.73" style="fill: rgb(104, 225, 253); --darkreader-inline-fill: var(--darkreader-text-68e1fd, #63e0fd);" data-darkreader-inline-fill=""/><polyline class="cls-7_bartender-22" points="240.64 387.34 260.87 358.02 218.21 357.73"/><path class="cls-25_bartender-22" d="M246.96,209.76c.41,2.16,1.23,4.21,2.42,6.06.82,1.06,1.76,2.03,2.79,2.9l4.97,4.49c4.63,4.2,10.01,8.67,16.24,8.24,2.11-.21,4.17-.82,6.06-1.79,7.91-3.82,13.79-11.07,17.36-19.1,3.38-8.13,5.36-16.78,5.84-25.57.54-5.85.72-11.74.53-17.61-.17-3.46-.67-7.15-2.97-9.75-1.74-1.74-3.87-3.05-6.21-3.8-9.76-3.72-20.81-5.56-30.6-1.94-7.51,2.77-14.35,3.1-18,10.15-1.83,3.53-1.85,11.85-1.21,15.75.78,4.75.23,9.82.48,14.62.22,5.85.99,11.67,2.3,17.37Z"/><path class="cls-23_bartender-22" d="M238.9,152.5c-.43-1.27.25-2.64,1.52-3.07.21-.07.43-.11.65-.13l5.48-1.14c.8-4.2,2.48-8.18,4.93-11.68,1.19-1.88,2.65-3.58,4.34-5.03,2.49-1.88,5.37-3.19,8.42-3.84,10.79-2.6,22.17-.61,31.43,5.49,2.97,1.99,5.71,4.39,8.98,5.83,3.27,1.44,7.37,1.74,10.22-.4-.56,5.57-3.59,10.59-8.25,13.69,1.7.67,2.9,2.21,3.11,4.02.29,1.76-.39,3.51-.51,5.29-1.05,16.27-4.51,22.5-7.64,28.79.36-6.44.16-22.24-3.32-27.68-.83-1.44-2.03-2.63-3.48-3.45-1.4-.6-2.89-.93-4.41-.97-8.79-.8-17.61-1.61-26.44-1.57-3.18-.05-6.36.22-9.49.82-1.61.28-3.14.92-4.47,1.87-1.33.99-2.09,2.57-2.02,4.23.13,1.42,1.05,2.64,1.39,4.03.53,2.19-.41,4.45-1.21,6.54-1.42,4.98-2.3,12.27-3.63,17.3-3.22-11.63-5.03-26.95-5.6-38.95Z"/><path class="cls-14_bartender-22" d="M200.71,325.24s-6.35-27.57-12.6-34.21-23.02-13.68-23.02-13.68l-.44,25.61s32.72,16.63,36.05,22.28Z"/><path class="cls-11_bartender-22" d="M210.05,238.49c1.84.33,3.06,2.08,2.73,3.92-.03.18-.08.36-.14.54-.28,4.9-1.8,9.65-4.41,13.81-.17.29-.42.53-.71.7-.39.13-.82.13-1.21,0-2.3-.4-4.56-.96-6.78-1.68-.23-.06-.45-.17-.64-.3-.62-.48-.46-1.44-.27-2.2,1.21-4.59,1.32-9.36,2.42-13.93,1.1-4.57,5.55-2.04,9.01-.85Z"/></g><g id="bottle_bartender-22"><path class="cls-26_bartender-22 targetColor" d="M352.6,373.74v70.7c0,6.45-5.24,11.68-11.69,11.68h-15.25c-6.45,0-11.67-5.23-11.68-11.68v-69.82c0-4.97,4.02-8.99,8.99-9h0c1.09,0,1.97-.88,1.97-1.96v-42.06h15.98v42c0,1.09.89,1.96,1.97,1.96h1.51c4.52,0,8.19,3.67,8.19,8.19h0Z" style="fill: rgb(104, 225, 253); --darkreader-inline-fill: var(--darkreader-text-68e1fd, #63e0fd);" data-darkreader-inline-fill=""/><path class="cls-8_bartender-22" d="M352.6,373.74v70.7c0,6.45-5.24,11.68-11.69,11.68h-15.25c-6.45,0-11.67-5.23-11.68-11.68v-69.82c0-4.97,4.02-8.99,8.99-9h0c1.09,0,1.97-.88,1.97-1.96v-42.06h15.98v42c0,1.09.89,1.96,1.97,1.96h1.51c4.52,0,8.19,3.67,8.19,8.19h0Z"/><path class="cls-26_bartender-22 targetColor" d="M325.57,316.81h15.17c1.63,0,2.94,1.32,2.94,2.94h0c0,1.62-1.32,2.94-2.94,2.94h-15.17c-1.63,0-2.94-1.32-2.94-2.94h0c0-1.62,1.32-2.94,2.94-2.94Z" style="fill: rgb(104, 225, 253); --darkreader-inline-fill: var(--darkreader-text-68e1fd, #63e0fd);" data-darkreader-inline-fill=""/><path class="cls-13_bartender-22" d="M325.57,316.81h15.17c1.63,0,2.94,1.32,2.94,2.94h0c0,1.62-1.32,2.94-2.94,2.94h-15.17c-1.63,0-2.94-1.32-2.94-2.94h0c0-1.62,1.32-2.94,2.94-2.94Z"/><rect class="cls-10_bartender-22" x="320.24" y="372.73" width="32.05" height="61.76"/></g></svg>